<?xml version="1.0" standalone="no"?>
<!DOCTYPE svg PUBLIC "-//W3C//DTD SVG 20010904//EN"
 "http://www.w3.org/TR/2001/REC-SVG-20010904/DTD/svg10.dtd">
<svg version="1.0" xmlns="http://www.w3.org/2000/svg"
 width="1048.000000pt" height="1110.000000pt" viewBox="0 0 1048.000000 1110.000000"
 preserveAspectRatio="xMidYMid meet">

<g transform="translate(0.000000,1110.000000) scale(0.100000,-0.100000)"
fill="#000000" stroke="none">
<path d="M8452 10385 c1 -22 -11 -91 -25 -154 -15 -62 -27 -122 -27 -131 0
-10 -7 -21 -15 -24 -9 -3 -15 -11 -13 -18 2 -13 -8 -77 -18 -111 -3 -9 -10
-15 -15 -12 -5 4 -9 -10 -9 -30 0 -22 -4 -34 -10 -30 -6 4 -10 -5 -10 -20 0
-14 -12 -43 -26 -65 -21 -31 -24 -45 -19 -72 4 -18 4 -30 0 -26 -13 13 -47
-35 -42 -59 5 -24 -7 -31 -17 -10 -3 6 -4 -1 -1 -17 5 -23 3 -27 -10 -23 -12
5 -14 1 -9 -18 4 -18 2 -25 -8 -25 -22 0 -39 -45 -28 -75 6 -15 6 -26 0 -30
-6 -4 -10 -1 -10 5 0 6 -4 9 -9 6 -4 -3 -6 -17 -3 -31 2 -15 0 -25 -7 -25 -6
0 -11 8 -12 18 0 13 -2 12 -9 -5 -5 -13 -14 -23 -20 -23 -5 0 -10 -5 -10 -11
0 -7 9 -9 21 -6 20 5 20 4 -5 -22 -14 -15 -26 -32 -26 -39 0 -7 -5 -12 -11
-12 -6 0 -8 7 -4 18 4 12 3 14 -5 6 -8 -8 -8 -19 0 -39 7 -20 8 -31 0 -39 -7
-7 -10 -3 -10 12 0 12 -4 22 -9 22 -17 0 -21 -16 -11 -48 9 -35 -5 -55 -15
-21 -11 33 -18 13 -18 -47 0 -30 -3 -50 -8 -43 -4 7 -5 28 -2 48 4 29 3 34 -7
24 -7 -6 -13 -33 -14 -59 -2 -26 -8 -50 -14 -52 -7 -2 -12 -9 -12 -17 0 -21
-27 -38 -36 -23 -6 9 -10 5 -14 -12 -4 -16 -13 -25 -25 -25 -10 0 -20 -6 -23
-14 -4 -11 2 -13 27 -8 33 7 40 -3 16 -23 -12 -10 -18 -10 -30 0 -22 18 -27 8
-14 -29 6 -18 9 -35 5 -38 -3 -4 -6 -1 -6 6 0 8 -7 10 -20 6 -12 -4 -20 -2
-20 5 0 6 -5 10 -11 8 -6 -2 -10 -7 -9 -11 0 -4 -6 -15 -15 -23 -8 -9 -12 -20
-9 -26 4 -7 14 -1 25 13 21 28 30 24 18 -8 -9 -24 -49 -51 -49 -33 0 5 -4 10
-9 10 -5 0 -9 -14 -9 -31 1 -30 -25 -69 -39 -56 -3 4 -1 13 5 19 15 15 16 38
2 38 -6 0 -14 -8 -17 -17 -4 -10 -24 -34 -45 -54 -45 -42 -47 -48 -12 -41 26
5 26 5 9 -22 -12 -19 -14 -26 -5 -26 9 0 7 -6 -4 -19 -10 -11 -24 -17 -30 -15
-7 3 -20 -6 -29 -20 -10 -15 -12 -26 -6 -28 6 -2 -1 -14 -15 -27 -21 -20 -26
-21 -26 -8 0 9 5 19 10 22 6 4 8 15 5 25 -7 22 28 50 63 50 15 0 22 5 19 13
-2 6 -9 11 -15 10 -6 -2 -9 4 -6 12 4 8 1 15 -5 15 -7 0 -14 -6 -17 -14 -3 -8
-14 -16 -24 -19 -10 -2 -24 -17 -31 -33 -8 -15 -27 -35 -43 -44 -30 -16 -47
-46 -39 -67 3 -7 0 -13 -7 -13 -6 0 -8 5 -5 10 3 6 -1 10 -9 10 -8 0 -18 -5
-22 -12 -5 -8 -10 -6 -15 8 -8 18 -8 18 -14 -2 -12 -41 -83 -59 -92 -24 -4 12
-3 13 5 1 6 -8 17 -11 28 -7 16 6 16 7 -2 21 -14 10 -16 16 -7 25 8 9 14 7 22
-9 13 -24 31 -28 31 -7 0 8 -9 18 -20 21 -11 3 -20 12 -20 20 0 7 -8 12 -17
11 -10 0 -18 5 -19 12 -3 25 -5 27 -15 12 -7 -10 -12 -11 -15 -4 -12 29 -34
49 -42 37 -5 -9 -16 -8 -42 5 -19 9 -36 20 -38 24 -2 4 -9 8 -17 8 -7 0 -18 7
-25 15 -10 12 -10 15 1 15 10 1 8 5 -5 15 -11 8 -29 12 -41 9 -15 -4 -27 1
-36 13 -9 11 -28 18 -52 19 -22 1 -46 9 -55 18 -16 16 -15 17 12 10 21 -5 27
-4 22 5 -4 6 -13 11 -21 11 -7 0 -16 6 -18 13 -4 9 -6 9 -6 0 -1 -9 -12 -6
-37 7 -19 11 -33 16 -29 10 3 -5 1 -10 -4 -10 -6 0 -11 4 -11 9 0 5 -16 12
-35 15 -37 7 -58 26 -28 26 14 0 12 3 -7 13 -50 26 -90 37 -90 24 0 -8 -3 -8
-8 -2 -4 6 -22 18 -39 28 -28 15 -33 16 -33 3 0 -8 6 -17 13 -19 17 -8 -44 -8
-70 -1 -37 10 -26 23 14 17 26 -4 34 -3 29 5 -4 7 -21 12 -38 12 -23 0 -29 4
-24 15 4 11 -2 15 -28 15 -19 0 -40 7 -47 16 -11 13 -25 15 -76 10 -41 -4 -63
-3 -63 4 0 5 -7 10 -15 10 -21 0 -19 18 3 23 11 3 8 5 -8 5 -57 1 -130 11
-129 17 2 15 -25 23 -59 18 -29 -5 -34 -3 -29 9 4 12 -6 17 -51 22 -30 4 -61
11 -68 17 -7 6 -21 9 -31 7 -11 -3 6 -12 42 -24 58 -18 59 -19 25 -22 -19 -1
-46 -5 -60 -9 l-25 -6 25 -7 c17 -6 3 -8 -46 -9 -38 -1 -75 -6 -81 -12 -6 -6
-19 -9 -29 -7 -16 4 -14 7 9 16 16 7 43 12 60 12 37 0 51 8 55 32 2 13 -10 19
-53 29 -30 7 -55 16 -55 21 0 5 -98 7 -217 5 -120 -2 -190 -2 -155 0 51 3 62
7 62 21 0 13 -9 18 -32 19 -26 2 -29 0 -13 -6 37 -16 -30 -24 -200 -25 -237
-1 -304 4 -298 23 4 13 2 13 -9 -1 -11 -13 -24 -15 -59 -11 -47 6 -47 -12 1
-19 14 -3 -37 -3 -112 -1 -96 2 -138 -1 -138 -8 0 -7 -11 -9 -26 -6 -16 3 -28
0 -31 -9 -2 -7 -11 -10 -19 -7 -8 3 -14 0 -14 -6 0 -6 -7 -8 -15 -5 -8 4 -17
-1 -21 -10 -4 -12 -19 -16 -55 -16 -64 0 -63 16 1 25 52 7 69 25 25 25 -14 0
-25 -4 -25 -9 0 -5 -18 -11 -40 -15 -22 -3 -40 -10 -40 -15 0 -5 -36 -12 -80
-16 -44 -4 -78 -11 -75 -15 9 -14 -53 -32 -86 -25 -22 5 -29 4 -25 -4 5 -7 -4
-11 -23 -11 -37 0 -40 -12 -8 -29 20 -11 20 -11 -9 -7 -18 3 -34 2 -38 -1 -6
-6 -66 -11 -66 -5 0 1 10 7 23 12 16 6 17 9 5 9 -9 1 -23 -6 -32 -14 -8 -8
-18 -15 -22 -15 -4 0 -15 -6 -23 -14 -9 -8 -42 -17 -74 -20 -60 -5 -87 -18
-87 -41 0 -16 -46 -25 -59 -12 -7 7 -21 4 -43 -7 l-33 -17 38 7 c29 5 37 3 37
-9 0 -8 9 -17 21 -20 12 -3 19 -12 17 -19 -6 -18 -60 -18 -89 -1 -23 13 -23
14 8 8 20 -4 33 -2 33 3 0 15 -31 20 -60 9 -14 -5 -40 -9 -59 -9 -21 0 -29 -3
-21 -8 14 -9 1 -14 -62 -26 -37 -6 -53 -24 -22 -24 8 0 12 -5 9 -10 -4 -7 -13
-6 -26 1 -25 13 -40 2 -19 -12 11 -8 6 -9 -20 -5 -23 4 -30 3 -21 -3 12 -8 9
-11 -12 -15 -15 -3 -39 -8 -53 -11 -16 -4 -24 -11 -21 -19 7 -17 -11 -36 -33
-36 -13 0 -13 1 0 10 13 9 13 10 0 10 -9 0 -23 -9 -33 -20 -9 -11 -24 -20 -32
-20 -8 0 -15 -4 -15 -9 0 -5 -6 -8 -12 -7 -7 0 -14 -3 -15 -7 -1 -4 -10 -15
-19 -24 -12 -13 -18 -13 -24 -4 -11 18 -17 2 -15 -41 0 -20 -3 -34 -7 -32 -4
3 -8 0 -8 -5 0 -6 -8 -11 -17 -11 -16 -1 -16 -2 1 -15 17 -13 18 -15 2 -21
-10 -4 -25 1 -36 11 -19 17 -19 18 13 35 18 10 33 27 35 39 4 27 -18 28 -25 1
-3 -11 -13 -20 -23 -20 -10 0 -20 -6 -22 -12 -3 -7 -21 -13 -41 -13 -36 0 -47
8 -28 20 12 7 -35 55 -54 55 -8 0 -14 6 -12 13 1 6 -3 11 -9 10 -7 -1 -15 9
-18 22 -4 14 -20 31 -41 41 -20 9 -35 24 -35 33 0 18 -43 61 -60 61 -6 0 -10
-5 -10 -12 0 -6 -3 -8 -6 -5 -4 4 -1 13 6 22 7 8 9 15 5 15 -4 0 -14 -8 -20
-17 -13 -17 -14 -17 -34 1 -25 23 -31 57 -11 73 13 11 13 12 -2 13 -10 0 -18
8 -18 18 -1 23 -26 56 -34 43 -3 -5 0 -16 8 -23 7 -8 17 -25 21 -37 6 -20 4
-23 -10 -18 -9 4 -18 7 -21 7 -2 0 -11 14 -20 31 -11 21 -12 34 -5 38 14 9 2
51 -15 51 -8 0 -15 6 -15 13 -1 6 -2 19 -3 27 0 8 -10 15 -21 15 -11 0 -21 8
-23 17 -3 14 1 16 15 11 17 -7 17 -6 0 11 -20 21 -20 21 -42 -19 -15 -26 -16
-27 -11 -6 7 33 -10 62 -31 54 -14 -5 -15 -1 -10 25 7 33 -17 118 -36 129 -7
3 -9 3 -5 -2 4 -4 3 -17 -3 -27 -8 -15 -14 -17 -22 -9 -9 9 -9 14 1 20 10 6
10 10 -3 21 -13 10 -15 9 -16 -6 0 -12 -4 -8 -10 11 -5 17 -7 40 -4 52 3 12
-2 28 -10 36 -11 12 -12 17 -2 21 6 3 3 4 -9 1 -24 -6 -44 13 -69 68 -14 31
-15 41 -5 50 10 10 11 7 5 -10 -5 -18 -3 -22 9 -17 14 5 13 11 -6 45 -12 21
-28 39 -35 39 -8 0 -13 12 -13 30 0 30 -23 43 -33 18 -3 -7 -3 5 0 27 4 32 2
37 -7 25 -9 -12 -11 -9 -6 17 3 21 0 37 -9 47 -8 8 -15 21 -15 28 0 10 -3 9
-10 -2 -7 -11 -8 -2 -4 28 4 28 3 42 -5 42 -6 0 -11 -8 -11 -17 -1 -16 -2 -16
-11 1 -9 14 -8 21 2 27 11 8 11 12 -5 24 -10 8 -16 21 -13 29 4 9 1 15 -6 13
-7 -1 -13 12 -15 33 -2 19 -9 42 -17 50 -7 8 -16 42 -20 74 -8 71 -14 88 -27
80 -7 -4 -8 5 -3 25 4 20 3 31 -4 31 -6 0 -11 15 -11 34 0 19 -4 37 -9 40 -5
3 -15 30 -21 58 -7 29 -16 58 -20 63 -5 6 -11 21 -13 35 -3 14 -4 3 -3 -24 2
-27 0 -63 -5 -80 -5 -17 -11 -130 -13 -251 -4 -207 2 -300 33 -550 21 -166 98
-486 153 -635 100 -273 166 -418 281 -618 43 -73 77 -141 77 -151 0 -11 -16
-38 -35 -61 -38 -45 -41 -55 -24 -66 8 -4 7 -9 -2 -14 -10 -7 -10 -11 0 -24
11 -13 11 -16 -3 -16 -9 0 -16 5 -16 10 0 6 -7 10 -15 10 -8 0 -15 -6 -15 -14
0 -8 -8 -13 -18 -12 -10 0 -16 -6 -16 -16 1 -11 -5 -18 -15 -18 -17 0 -41 -18
-41 -31 0 -4 12 -2 27 6 15 8 29 13 31 11 1 -2 -7 -23 -19 -47 l-23 -42 -9 26
c-5 15 -16 27 -25 27 -15 -1 -15 -2 -2 -13 9 -7 14 -21 12 -32 -5 -27 -32 -56
-44 -48 -6 3 -14 -1 -19 -8 -7 -11 -9 -10 -9 4 0 9 -5 17 -11 17 -12 0 -1 -43
12 -48 10 -4 13 -32 4 -32 -3 0 -17 12 -30 26 -22 24 -25 25 -32 8 -4 -12 0
-22 15 -32 25 -17 29 -32 7 -32 -8 0 -15 4 -15 9 0 5 -7 12 -15 15 -9 3 -15 1
-14 -7 3 -27 -2 -38 -17 -35 -12 2 -17 -6 -20 -32 -3 -28 -1 -31 7 -17 11 19
29 23 29 6 0 -6 -6 -17 -14 -25 -8 -7 -17 -19 -20 -26 -3 -10 -8 -8 -16 5 -15
23 -40 22 -40 -2 0 -11 -5 -23 -11 -26 -6 -4 -8 -14 -5 -22 10 -26 -12 -52
-39 -47 -28 5 -36 -20 -10 -30 8 -3 15 -10 15 -16 0 -6 -7 -4 -16 4 -21 22
-31 13 -39 -35 -5 -29 -10 -38 -18 -30 -13 13 -51 -55 -49 -90 2 -30 -20 -65
-36 -55 -9 5 -7 14 4 31 9 14 11 25 5 29 -6 4 -15 -11 -22 -34 -7 -22 -18 -40
-24 -40 -7 0 -15 -9 -18 -20 -6 -23 11 -27 19 -5 7 17 34 21 34 4 0 -5 -4 -7
-10 -4 -9 6 -15 -8 -11 -29 1 -5 -5 -6 -13 -3 -8 3 -17 -1 -21 -11 -3 -9 -2
-18 4 -20 12 -4 3 -32 -10 -32 -5 0 -9 7 -9 16 0 9 -5 14 -11 12 -11 -4 -11
-10 -2 -45 8 -32 -4 -60 -19 -45 -19 19 -31 14 -24 -12 4 -15 0 -28 -10 -36
-12 -10 -12 -15 -2 -21 9 -6 8 -10 -5 -15 -10 -4 -17 -17 -17 -34 0 -29 -23
-56 -39 -46 -16 10 -22 -10 -12 -37 8 -20 6 -30 -10 -48 -10 -12 -19 -30 -19
-41 0 -23 -17 -24 -23 0 -3 9 -5 1 -6 -18 -2 -48 -12 -81 -22 -74 -5 3 -9 -15
-9 -40 0 -25 -4 -46 -10 -46 -5 0 -10 -6 -10 -14 0 -7 -6 -19 -14 -25 -8 -7
-12 -21 -9 -31 3 -12 -5 -33 -19 -53 -16 -20 -24 -42 -22 -60 1 -15 -2 -25 -7
-22 -8 6 -14 -17 -10 -39 1 -5 -4 -23 -13 -40 -8 -17 -20 -58 -26 -91 -6 -33
-15 -73 -20 -90 -5 -16 -16 -70 -25 -120 -19 -107 -35 -192 -41 -220 -7 -27
-22 -180 -34 -340 -33 -442 62 -1084 225 -1520 15 -38 35 -95 46 -125 59 -166
209 -464 339 -675 348 -562 794 -1000 1367 -1343 198 -118 636 -319 758 -348
17 -4 42 -13 58 -21 15 -7 46 -18 70 -23 23 -5 83 -20 132 -33 221 -62 539
-113 798 -129 219 -13 588 0 767 28 320 50 411 69 660 143 277 81 686 267 920
416 19 13 69 44 110 70 76 49 228 156 265 187 11 9 40 33 65 53 175 144 394
362 535 531 58 71 117 142 131 158 13 15 24 29 24 31 0 1 42 65 93 141 51 77
96 146 100 154 4 8 29 51 56 95 130 214 272 538 361 825 17 58 38 123 45 145
12 38 44 179 66 295 6 30 15 73 19 95 5 22 14 78 20 125 6 47 17 117 23 155
16 93 14 712 -2 728 -6 6 -11 44 -11 85 0 40 -4 81 -9 90 -5 9 -11 37 -14 62
-9 75 -26 162 -43 225 -9 33 -19 80 -24 105 -20 110 -24 126 -37 147 -8 12
-12 26 -9 31 3 6 -1 15 -9 22 -8 7 -15 26 -15 42 0 17 -4 27 -10 23 -6 -4 -10
6 -10 23 0 16 -7 35 -15 42 -9 8 -13 21 -9 36 3 13 2 24 -4 24 -15 0 -44 87
-37 111 5 15 4 19 -4 15 -7 -5 -11 2 -11 18 0 14 -4 27 -9 30 -5 3 -7 15 -4
25 3 10 0 22 -5 25 -6 4 -8 -2 -5 -14 3 -12 0 -20 -7 -20 -6 0 -11 12 -10 28
3 45 1 62 -10 62 -5 0 -7 -8 -4 -17 4 -13 0 -11 -15 6 -25 27 -27 43 -6 35 10
-4 15 0 15 15 0 14 -5 19 -16 14 -12 -4 -14 0 -8 21 5 21 2 27 -18 35 -30 11
-57 41 -37 41 10 0 10 3 1 12 -7 7 -12 25 -12 40 0 15 -4 28 -10 28 -5 0 -9 3
-8 8 0 4 -2 15 -5 25 -4 9 -9 24 -12 32 -6 20 -25 19 -25 -1 0 -14 -3 -14 -15
-4 -12 10 -13 15 -4 20 14 9 3 30 -17 30 -8 0 -14 7 -14 16 0 10 6 14 15 10 9
-3 15 0 15 10 0 11 -6 14 -16 10 -8 -3 -12 -2 -9 4 3 5 -6 12 -20 16 -30 7
-49 37 -40 64 4 12 -2 31 -14 49 -12 16 -21 35 -21 41 0 10 -3 10 -15 0 -12
-10 -15 -4 -21 39 -4 28 -11 48 -15 45 -5 -3 -8 -8 -5 -12 2 -4 0 -16 -5 -27
-7 -18 -8 -18 -9 5 -3 34 -3 32 5 60 4 17 3 21 -3 12 -7 -10 -11 -5 -16 20 -5
25 -9 30 -16 18 -6 -10 -4 -23 6 -38 9 -13 14 -26 11 -28 -9 -9 -37 9 -38 25
-2 16 -5 38 -8 55 0 5 -10 1 -21 -9 -20 -18 -21 -18 -14 1 4 10 16 27 27 37
20 17 20 17 -1 17 -12 0 -22 -4 -22 -10 0 -5 -7 -10 -15 -10 -8 0 -15 7 -15
15 0 10 10 15 28 15 20 0 23 3 12 9 -8 6 -18 7 -23 4 -5 -3 -13 1 -18 8 -13
21 -11 32 6 25 8 -3 15 -1 15 3 0 13 -27 21 -45 15 -14 -6 -19 5 -16 33 3 19
-30 63 -46 63 -9 0 -13 6 -10 14 6 14 -41 66 -60 66 -6 0 -13 9 -16 20 -8 30
-24 24 -31 -11 -3 -19 -10 -28 -17 -23 -8 4 -7 9 2 15 12 8 11 11 -1 18 -8 5
-26 19 -39 30 -28 25 -11 28 24 5 31 -20 53 -9 30 16 -9 10 -24 16 -36 13 -14
-4 -18 -1 -13 10 8 21 -12 30 -37 17 -22 -12 -39 -4 -42 21 -2 8 -6 20 -10 27
-15 22 7 12 30 -15 21 -24 23 -25 23 -5 0 11 -23 44 -50 74 -28 29 -53 63 -56
75 -5 20 47 133 81 173 18 21 108 198 151 295 83 188 92 208 115 280 37 111
88 296 118 425 12 49 44 247 61 375 6 44 14 202 17 352 5 237 4 277 -11 313
-9 22 -16 59 -17 83 0 23 -4 51 -9 62 -7 15 -9 11 -8 -20z m-161 -632 c-8 -15
-10 -15 -11 -2 0 17 10 32 18 25 2 -3 -1 -13 -7 -23z m-101 -237 c0 -2 -7 -9
-15 -16 -12 -10 -15 -10 -15 4 0 9 7 16 15 16 8 0 15 -2 15 -4z m-5889 -367
c-6 -24 -9 -28 -10 -12 -1 24 9 56 16 50 2 -3 0 -20 -6 -38z m2667 -26 c-21
-2 -55 -2 -75 0 -21 2 -4 4 37 4 41 0 58 -2 38 -4z m-378 -48 c10 -13 7 -17
-21 -30 -19 -8 -26 -14 -16 -15 19 0 24 -16 5 -17 -7 -1 -32 -4 -55 -8 -30 -5
-43 -4 -43 4 0 6 7 11 15 11 8 0 23 4 33 10 9 5 30 15 46 20 19 7 26 15 22 25
-7 19 -2 19 14 0z m-130 -36 c0 -5 -12 -8 -27 -8 -17 1 -21 3 -10 6 9 2 17 9
17 14 0 6 5 7 10 4 6 -3 10 -10 10 -16z m-207 4 c-7 -2 -19 -2 -25 0 -7 3 -2
5 12 5 14 0 19 -2 13 -5z m1744 1 c-3 -3 -12 -4 -19 -1 -8 3 -5 6 6 6 11 1 17
-2 13 -5z m-504 -11 c-7 -2 -19 -2 -25 0 -7 3 -2 5 12 5 14 0 19 -2 13 -5z
m445 -5 c-7 -19 -38 -22 -38 -4 0 10 9 16 21 16 12 0 19 -5 17 -12z m-1195 -5
c-7 -2 -21 -2 -30 0 -10 3 -4 5 12 5 17 0 24 -2 18 -5z m830 0 c-7 -2 -21 -2
-30 0 -10 3 -4 5 12 5 17 0 24 -2 18 -5z m247 -23 c0 -5 -7 -10 -15 -10 -8 0
-15 5 -15 10 0 6 7 10 15 10 8 0 15 -4 15 -10z m-1405 -10 c-3 -5 -13 -10 -21
-10 -8 0 -14 5 -14 10 0 6 9 10 21 10 11 0 17 -4 14 -10z m1485 0 c0 -5 -6
-10 -14 -10 -8 0 -18 5 -21 10 -3 6 3 10 14 10 12 0 21 -4 21 -10z m-3450 -40
c0 -5 -5 -12 -12 -16 -12 -8 -40 24 -32 38 6 10 44 -9 44 -22z m1760 21 c0 -5
10 -12 23 -14 14 -3 9 -5 -14 -6 -26 -1 -36 3 -36 14 0 8 6 15 14 15 7 0 13
-4 13 -9z m1770 -1 c0 -5 -2 -10 -4 -10 -3 0 -8 5 -11 10 -3 6 -1 10 4 10 6 0
11 -4 11 -10z m-1923 -6 c-3 -3 -12 -4 -19 -1 -8 3 -5 6 6 6 11 1 17 -2 13 -5z
m76 -11 c-7 -2 -21 -2 -30 0 -10 3 -4 5 12 5 17 0 24 -2 18 -5z m1955 0 c-10
-2 -28 -2 -40 0 -13 2 -5 4 17 4 22 1 32 -1 23 -4z m79 1 c-3 -3 -12 -4 -19
-1 -8 3 -5 6 6 6 11 1 17 -2 13 -5z m133 -9 c0 -11 -11 -15 -40 -15 -29 0 -40
-4 -40 -15 0 -17 -9 -19 -30 -5 -13 8 -11 11 8 16 12 4 22 13 22 20 0 10 13
14 40 14 29 0 40 -4 40 -15z m-2260 -29 c8 -3 4 -4 -10 -3 -16 1 -26 9 -28 22
-3 18 -3 18 10 4 7 -9 20 -19 28 -23z m120 20 c0 -3 -4 -8 -10 -11 -5 -3 -10
-1 -10 4 0 6 5 11 10 11 6 0 10 -2 10 -4z m-66 -15 c3 -5 -1 -12 -10 -15 -22
-9 -24 -8 -24 9 0 16 25 21 34 6z m-1633 -34 c-8 -8 -11 -7 -11 4 0 20 13 34
18 19 3 -7 -1 -17 -7 -23z m1359 14 c0 -10 -36 -18 -79 -19 -46 -1 -1 16 72
27 4 0 7 -3 7 -8z m113 -28 c-7 -2 -19 -2 -25 0 -7 3 -2 5 12 5 14 0 19 -2 13
-5z m2525 -28 c-3 -3 -13 -2 -22 1 -14 5 -15 9 -4 15 13 8 36 -6 26 -16z m65
11 c17 -13 16 -14 -2 -19 -21 -5 -46 15 -34 26 9 10 15 8 36 -7z m-2733 -6 c0
-5 -8 -10 -17 -10 -15 0 -16 2 -3 10 19 12 20 12 20 0z m60 0 c0 -5 -7 -10
-15 -10 -8 0 -15 5 -15 10 0 6 7 10 15 10 8 0 15 -4 15 -10z m2835 -25 c6 -13
17 -19 30 -17 11 2 17 1 14 -2 -3 -4 -28 -8 -55 -10 -27 -1 -38 -1 -25 1 l24
5 -29 24 -29 24 30 -2 c18 -2 34 -11 40 -23z m-2952 -32 c-7 -2 -21 -2 -30 0
-10 3 -4 5 12 5 17 0 24 -2 18 -5z m3032 -3 c3 -5 -1 -10 -10 -10 -9 0 -13 5
-10 10 3 6 8 10 10 10 2 0 7 -4 10 -10z m-3163 -35 c0 -5 -5 -11 -11 -13 -6
-2 -11 4 -11 13 0 9 5 15 11 13 6 -2 11 -8 11 -13z m3098 -1 c0 -17 -22 -14
-28 4 -2 7 3 12 12 12 9 0 16 -7 16 -16z m-4018 -103 c-3 -27 0 -31 20 -31 36
0 63 -24 63 -57 0 -23 5 -28 25 -30 14 0 31 -1 38 -2 6 -1 12 -7 12 -14 0 -20
-31 -14 -74 12 -25 16 -34 26 -26 31 8 5 -3 18 -32 37 -23 17 -42 35 -40 42 1
6 -5 14 -13 17 -8 4 -15 17 -15 31 0 24 1 25 23 10 16 -11 21 -22 19 -46z
m732 53 c9 -3 16 -11 16 -17 0 -6 -3 -8 -6 -4 -4 3 -22 0 -41 -8 -43 -18 -43
-18 -43 0 0 9 9 15 25 15 14 0 25 5 25 10 0 12 3 12 24 4z m3451 -22 c-2 -3
-12 -1 -22 2 -15 6 -15 9 -3 16 13 8 35 -8 25 -18z m-3605 -2 c0 -5 -5 -10
-11 -10 -5 0 -7 5 -4 10 3 6 8 10 11 10 2 0 4 -4 4 -10z m3775 0 c3 -5 1 -10
-4 -10 -6 0 -11 5 -11 10 0 6 2 10 4 10 3 0 8 -4 11 -10z m-3690 -50 c-3 -5
-12 -7 -20 -3 -21 7 -19 13 6 13 11 0 18 -4 14 -10z m3615 6 c0 -11 -19 -15
-25 -6 -3 5 1 10 9 10 9 0 16 -2 16 -4z m-3666 -27 c-8 -13 -21 -11 -27 5 -4
10 0 12 14 9 10 -3 16 -9 13 -14z m3726 1 c0 -5 -9 -10 -20 -10 -11 0 -20 5
-20 10 0 6 9 10 20 10 11 0 20 -4 20 -10z m-3805 -10 c4 -6 -1 -7 -11 -3 -13
5 -15 3 -9 -7 5 -9 4 -11 -3 -6 -7 4 -12 11 -12 17 0 12 27 12 35 -1z m3885 0
c0 -5 -10 -10 -22 -9 -22 0 -22 1 -3 9 11 5 21 9 23 9 1 1 2 -3 2 -9z m95 -30
c3 -5 1 -10 -4 -10 -6 0 -11 5 -11 10 0 6 2 10 4 10 3 0 8 -4 11 -10z m-4065
-35 c0 -1 -7 -8 -15 -15 -13 -10 -15 -9 -15 8 0 15 5 20 15 16 8 -4 15 -7 15
-9z m4050 -10 c0 -9 -6 -12 -15 -9 -8 4 -15 10 -15 15 0 5 7 9 15 9 8 0 15 -7
15 -15z m294 -4 c3 -5 -4 -11 -16 -14 -25 -7 -33 -3 -23 12 8 13 32 14 39 2z
m-4624 -56 c22 -27 5 -37 -19 -11 -19 20 -21 26 -9 26 9 0 21 -7 28 -15z
m4600 -5 c-14 -10 -26 -17 -28 -15 -7 7 23 34 38 34 10 1 6 -6 -10 -19z
m-4490 -50 c0 -5 -4 -10 -10 -10 -5 0 -10 5 -10 10 0 6 5 10 10 10 6 0 10 -4
10 -10z m-43 -16 c-3 -3 -12 -4 -19 -1 -8 3 -5 6 6 6 11 1 17 -2 13 -5z m4470
0 c-3 -3 -12 -4 -19 -1 -8 3 -5 6 6 6 11 1 17 -2 13 -5z m-5147 -545 c0 -5 -9
-9 -20 -9 -11 0 -20 4 -20 8 0 4 9 8 20 9 11 1 20 -2 20 -8z m5828 -13 c-7 -8
-17 -12 -22 -9 -4 3 -2 9 5 14 22 13 31 11 17 -5z m132 -106 c14 -26 3 -45
-16 -29 -16 13 -19 49 -4 49 5 0 14 -9 20 -20z m40 -29 c0 -6 -4 -13 -10 -16
-5 -3 -10 1 -10 9 0 9 5 16 10 16 6 0 10 -4 10 -9z m35 -53 c33 -15 32 -30 -2
-26 -17 2 -29 10 -31 21 -4 20 -1 21 33 5z m55 -113 c0 -8 -4 -15 -10 -15 -5
0 -10 7 -10 15 0 8 5 15 10 15 6 0 10 -7 10 -15z m-6420 -90 c0 -5 -5 -3 -10
5 -5 8 -10 20 -10 25 0 6 5 3 10 -5 5 -8 10 -19 10 -25z m-103 -117 c-3 -8 -6
-5 -6 6 -1 11 2 17 5 13 3 -3 4 -12 1 -19z m-47 -80 c0 -7 -7 -22 -15 -32 -12
-16 -15 -17 -15 -4 0 24 11 48 21 48 5 0 9 -6 9 -12z m6780 3 c0 -5 3 -18 6
-28 6 -16 5 -16 -9 2 -19 23 -21 35 -7 35 6 0 10 -4 10 -9z m180 -303 c0 -14
-18 -9 -24 8 -11 28 -6 39 9 20 8 -11 15 -23 15 -28z m70 -146 c0 -15 -2 -15
-10 -2 -13 20 -13 33 0 25 6 -3 10 -14 10 -23z m77 -204 c-3 -8 -6 -5 -6 6 -1
11 2 17 5 13 3 -3 4 -12 1 -19z m-6327 -1236 c36 -19 99 -53 140 -75 88 -47
142 -76 265 -142 123 -65 233 -124 275 -148 97 -55 198 -109 222 -118 35 -14
39 -27 27 -101 -27 -164 0 -430 60 -580 5 -12 24 -61 42 -108 61 -157 152
-316 311 -544 4 -6 10 -8 13 -4 4 3 -4 28 -16 55 -55 121 -84 305 -74 478 9
157 63 364 127 487 18 35 21 36 46 26 15 -7 32 -15 37 -19 6 -3 51 -28 100
-54 50 -26 95 -51 100 -55 6 -4 57 -32 115 -62 106 -56 203 -108 295 -158 28
-15 78 -42 112 -59 34 -18 64 -38 66 -45 7 -17 -30 -72 -107 -161 -149 -172
-299 -287 -487 -374 -111 -51 -267 -104 -290 -98 -11 3 -19 1 -19 -3 0 -10
-63 -23 -192 -41 -194 -27 -524 15 -703 91 -78 32 -108 46 -170 78 -59 29
-177 104 -195 122 -3 3 -34 29 -70 58 -106 84 -215 214 -292 345 -82 141 -127
264 -168 457 -14 67 -8 383 9 455 7 28 15 65 18 83 3 18 9 35 14 38 5 3 9 13
9 23 0 9 9 36 20 59 11 22 20 45 20 51 0 16 72 145 88 158 12 10 31 4 101 -34
47 -25 115 -62 151 -81z m5513 14 c26 -52 47 -102 47 -110 0 -8 5 -18 10 -21
6 -3 10 -17 10 -30 0 -13 4 -26 9 -29 5 -3 11 -20 14 -38 3 -18 11 -55 18 -83
17 -72 23 -377 9 -450 -71 -375 -249 -658 -550 -876 -142 -103 -245 -155 -420
-213 -247 -81 -503 -96 -767 -45 -29 6 -53 14 -53 19 0 4 -8 6 -19 3 -25 -6
-186 48 -300 103 -184 88 -333 204 -477 369 -122 141 -127 158 -57 195 26 14
76 41 112 61 37 20 107 58 156 84 95 51 183 98 329 177 49 26 91 48 93 48 3 0
17 8 31 18 15 10 39 23 54 30 26 11 29 10 47 -26 30 -60 78 -200 99 -292 51
-216 31 -502 -47 -673 -12 -27 -20 -52 -16 -55 3 -4 9 -2 13 4 143 204 253
394 302 519 65 166 102 296 115 409 10 83 7 240 -4 309 -6 32 -8 63 -5 70 2 7
32 25 67 42 34 16 64 32 67 35 3 3 23 15 45 26 22 12 72 38 110 59 73 40 281
151 400 215 87 47 190 102 275 148 187 102 205 110 220 102 8 -4 36 -51 63
-104z"/>
<path d="M2170 9390 c0 -19 3 -21 12 -12 9 9 9 15 0 24 -9 9 -12 7 -12 -12z"/>
<path d="M2250 9265 c0 -8 7 -15 15 -15 8 0 15 -5 15 -12 0 -6 3 -9 6 -6 8 8
-14 48 -26 48 -6 0 -10 -7 -10 -15z"/>
<path d="M4978 9163 c23 -2 61 -2 85 0 23 2 4 4 -43 4 -47 0 -66 -2 -42 -4z"/>
<path d="M5223 9163 c26 -2 67 -2 90 0 23 2 2 3 -48 3 -49 0 -68 -1 -42 -3z"/>
<path d="M4713 9143 c9 -2 25 -2 35 0 9 3 1 5 -18 5 -19 0 -27 -2 -17 -5z"/>
<path d="M5078 9143 c34 -2 90 -2 125 0 34 2 6 3 -63 3 -69 0 -97 -1 -62 -3z"/>
<path d="M5465 9140 c-3 -5 3 -10 14 -10 12 0 21 5 21 10 0 6 -6 10 -14 10 -8
0 -18 -4 -21 -10z"/>
<path d="M5555 9140 c22 -5 44 -4 50 1 5 5 -11 9 -40 8 l-50 -1 40 -8z"/>
<path d="M2360 9101 c0 -12 5 -21 10 -21 6 0 10 6 10 14 0 8 -4 18 -10 21 -5
3 -10 -3 -10 -14z"/>
<path d="M7905 9107 c-4 -10 -5 -21 -1 -24 10 -10 18 4 13 24 -4 17 -4 17 -12
0z"/>
<path d="M7876 9061 c-3 -5 1 -11 9 -15 8 -3 15 -1 15 4 0 13 -18 22 -24 11z"/>
<path d="M6106 9041 c-4 -5 3 -7 14 -4 23 6 26 13 6 13 -8 0 -17 -4 -20 -9z"/>
<path d="M6288 8993 c6 -2 18 -2 25 0 6 3 1 5 -13 5 -14 0 -19 -2 -12 -5z"/>
<path d="M7785 8940 c-7 -12 2 -30 16 -30 12 0 12 27 0 35 -5 3 -12 1 -16 -5z"/>
<path d="M3508 8823 c7 -3 16 -2 19 1 4 3 -2 6 -13 5 -11 0 -14 -3 -6 -6z"/>
<path d="M6758 8823 c7 -3 16 -2 19 1 4 3 -2 6 -13 5 -11 0 -14 -3 -6 -6z"/>
<path d="M2590 8808 c0 -9 5 -20 11 -23 17 -11 18 -2 3 19 -12 17 -14 17 -14
4z"/>
<path d="M6918 8733 c6 -2 18 -2 25 0 6 3 1 5 -13 5 -14 0 -19 -2 -12 -5z"/>
<path d="M7090 8650 c20 -13 33 -13 25 0 -3 6 -14 10 -23 10 -15 0 -15 -2 -2
-10z"/>
<path d="M2235 7930 c-3 -5 -1 -10 4 -10 6 0 11 5 11 10 0 6 -2 10 -4 10 -3 0
-8 -4 -11 -10z"/>
<path d="M2071 7749 c-7 -12 -10 -23 -8 -26 3 -3 11 5 17 17 15 28 8 35 -9 9z"/>
<path d="M1900 7530 c0 -5 5 -10 11 -10 5 0 7 5 4 10 -3 6 -8 10 -11 10 -2 0
-4 -4 -4 -10z"/>
<path d="M1827 7437 c-11 -29 -9 -43 4 -30 6 6 9 19 7 29 -3 18 -4 18 -11 1z"/>
<path d="M8520 7341 c0 -5 5 -13 10 -16 6 -3 10 -2 10 4 0 5 -4 13 -10 16 -5
3 -10 2 -10 -4z"/>
<path d="M8590 7214 c0 -11 7 -29 16 -40 15 -18 15 -18 9 11 -8 37 -25 57 -25
29z"/>
<path d="M1560 6975 c0 -8 5 -15 10 -15 6 0 10 7 10 15 0 8 -4 15 -10 15 -5 0
-10 -7 -10 -15z"/>
<path d="M1475 6830 c-3 -5 -3 -15 1 -21 6 -11 23 6 24 24 0 10 -18 9 -25 -3z"/>
<path d="M1430 6730 c0 -5 5 -10 11 -10 5 0 7 5 4 10 -3 6 -8 10 -11 10 -2 0
-4 -4 -4 -10z"/>
</g>
</svg>
